<svg width="32" height="32" viewBox="0 0 32 32" fill="none" xmlns="http://www.w3.org/2000/svg">
<path fill-rule="evenodd" clip-rule="evenodd" d="M20.3521 27.5015L21.947 26.5752C21.6027 26.3168 21.2671 26.0538 20.9401 25.7864L18.4203 27.2984C19.1935 27.6931 19.8557 27.7831 20.3418 27.5075L20.3521 27.5015ZM8.37011 6.62362L9.72634 5.8359C10.5372 11.0041 12.9098 17.7177 18.2212 23.2713L15.4932 24.9082C14.6465 24.0066 13.7687 22.9133 12.9073 21.6725C12.3148 20.819 11.73 19.8957 11.1683 18.917C10.6066 17.9383 10.1042 16.9672 9.66569 16.0242C8.81928 14.2039 8.21113 12.4886 7.87501 11.0267C7.3595 8.78453 7.48391 7.13834 8.37011 6.62362ZM14.728 1.62187C13.6286 1.13026 11.6812 0.588712 9.77721 1.69459L6.58436 3.54903C4.6883 4.65029 4.18732 6.60199 4.06203 7.7942C3.92627 9.08611 4.10318 10.4763 4.40028 11.7815C5.00451 14.4361 6.30445 17.5852 8.0845 20.6868C9.86434 23.7881 11.9261 26.4967 13.9118 28.3528C14.8877 29.2651 16 30.118 17.1871 30.6488C18.2865 31.1404 20.2339 31.682 22.1379 30.5761L25.3308 28.7217C27.2268 27.6204 27.7278 25.6687 27.8531 24.4765C27.9888 23.1846 27.8119 21.7944 27.5148 20.4892C26.9106 17.8346 25.6107 14.6855 23.8306 11.5839C22.0508 8.48262 19.9891 5.77402 18.0033 3.9179C17.0274 3.00562 15.9151 2.15273 14.728 1.62187Z" fill="#EB00FF"/>
</svg>
