<svg width="32" height="32" viewBox="0 0 32 32" fill="none" xmlns="http://www.w3.org/2000/svg">
<path d="M11.0311 1.26725C11.1922 0.831943 11.8078 0.831944 11.9689 1.26725L14.5263 8.17834C14.5769 8.3152 14.6848 8.4231 14.8217 8.47374L21.7327 11.0311C22.1681 11.1922 22.1681 11.8078 21.7327 11.9689L14.8217 14.5263C14.6848 14.5769 14.5769 14.6848 14.5263 14.8217L11.9689 21.7327C11.8078 22.1681 11.1922 22.1681 11.0311 21.7327L8.47374 14.8217C8.4231 14.6848 8.3152 14.5769 8.17834 14.5263L1.26725 11.9689C0.831943 11.8078 0.831944 11.1922 1.26725 11.0311L8.17834 8.47374C8.3152 8.4231 8.4231 8.3152 8.47374 8.17834L11.0311 1.26725Z" fill="#EB00FF"/>
<path d="M24.0311 19.2673C24.1922 18.8319 24.8078 18.8319 24.9689 19.2673L26.1758 22.5288C26.2264 22.6656 26.3344 22.7736 26.4712 22.8242L29.7327 24.0311C30.1681 24.1922 30.1681 24.8078 29.7327 24.9689L26.4712 26.1758C26.3344 26.2264 26.2264 26.3344 26.1758 26.4712L24.9689 29.7327C24.8078 30.1681 24.1922 30.1681 24.0311 29.7327L22.8242 26.4712C22.7736 26.3344 22.6656 26.2264 22.5288 26.1758L19.2673 24.9689C18.8319 24.8078 18.8319 24.1922 19.2673 24.0311L22.5288 22.8242C22.6656 22.7736 22.7736 22.6656 22.8242 22.5288L24.0311 19.2673Z" fill="#EB00FF"/>
</svg>
